<?xml version="1.0" encoding="UTF-8" standalone="no"?>
<svg
   line-height="20"
   version="1.1"
   margin-right="40.0"
   margin-left="80.0"
   background="PaperBackgroundThumb_BlankWhiteBackground.png"
   name=""
   width="457.14999"
   margin-top="40.0"
   margin-bottom="40.0"
   height="284.04999"
   id="svg10479"
   sodipodi:docname="intro.svg"
   inkscape:version="1.1 (c4e8f9ed74, 2021-05-24)"
   xmlns:inkscape="http://www.inkscape.org/namespaces/inkscape"
   xmlns:sodipodi="http://sodipodi.sourceforge.net/DTD/sodipodi-0.dtd"
   xmlns="http://www.w3.org/2000/svg"
   xmlns:svg="http://www.w3.org/2000/svg">
  <sodipodi:namedview
     id="namedview10481"
     pagecolor="#ffffff"
     bordercolor="#666666"
     borderopacity="1.0"
     inkscape:pageshadow="2"
     inkscape:pageopacity="0.0"
     inkscape:pagecheckerboard="0"
     showgrid="false"
     inkscape:zoom="1.9688504"
     inkscape:cx="377.12362"
     inkscape:cy="86.598756"
     inkscape:window-width="1916"
     inkscape:window-height="1040"
     inkscape:window-x="0"
     inkscape:window-y="18"
     inkscape:window-maximized="1"
     inkscape:current-layer="svg10479" />
  <path
     brush-type="3"
     stroke-linejoin="round"
     stroke-wetness="0.50"
     style="fill:none;stroke:#000000;stroke-width:5"
     d="m 83.46,67.559979 0.83,1.88 0.14,1.31 0.28,3.06 -0.42,2.91 -0.28,3.33 -0.13,3.33 v 3.33 l -0.14,3.19 -0.28,3.61 -0.42,5.41 -0.41,5.830001 -0.28,6.25 -0.28,4.58 -0.28,4.72 -0.27,4.71 -0.28,6.39 -0.14,6.38 -0.14,6.52 v 6.53 l -0.14,6.8 -0.14,7.49 -0.14,6.11 v 5.41 l -0.13,4.44 -0.28,3.75 -0.28,3.46 -0.28,3.89 -0.28,3.89 -0.41,4.3 -0.42,2.77 -0.41,2.78 -0.14,2.36 -0.14,2.63 v 2.64 l -0.28,2.36 v 2.22 l 0.14,1.67 0.83,1.38 1.25,0.56 1.94,0.28 h 2.36 2.78 l 5.83,-0.28 7.64,-0.56 10.55,-0.97 9.02,-0.97 8.74,-0.97 8.75,-1.11 9.58,-1.25 10.27,-1.25 9.44,-0.97 12.77,-1.11 11.94,-1.11 12.22,-0.83 8.88,-0.14 9.02,0.14 9.03,0.14 7.35,0.13 9.44,0.42 9.44,0.83 10.14,1.11 7.77,0.98 6.94,0.97 6.25,0.55 6.38,0.7 8.75,0.55 9.58,0.56 9.71,0.41 h 6.25 7.22 6.94 l 7.08,0.14 5.69,0.14 h 5.83 l 5.41,0.14 4.72,0.28 3.2,0.41 3.47,0.42 2.77,0.28 2.36,0.13 h 1.39 l 1.95,-1.11 1.94,-1.94 1.8,-3.05 0.84,-3.19 0.69,-4.17 0.42,-8.88 0.14,-10.68 -0.28,-11.38 -0.42,-8.75 -0.69,-11.65 -0.84,-11.38 -0.83,-10.69 -0.83,-7.91 -1.11,-10.54 -1.25,-10.27 -1.11,-9.580001 -0.97,-7.08 -1.11,-8.6 -1.11,-7.49 -0.7,-6.39 -0.28,-4.44 -0.13,-3.88 -0.28,-3.47 -0.42,-3.06"
     stroke-linecap="round"
     id="path10197" />
  <path
     brush-type="3"
     stroke-linejoin="round"
     stroke-wetness="0.50"
     style="fill:none;stroke:#808080;stroke-width:5"
     d="m 229.22,207.85998 0.2,-1.25 -1.18,-5.69 -4.3,-10.82 -6.38,-11.94 -6.11,-7.63 -4.17,-3.88 -3.61,-2.92 -5.27,-3.88 -5.28,-3.61 -5.41,-3.33 -4.44,-2.5 -5.14,-3.05 -6.8,-3.89 -6.52,-3.61 -6.53,-3.47 -5.14,-3.19 -4.99,-3.05 -6.25,-3.33 -5.83,-2.64 -6.11,-2.5 -3.75,-1.52 -5.41,-1.95 -5.41,-1.8 -5.56,-1.39 -3.47,-0.55 -2.77,-0.14 -3.75,-0.14 h -3.47 l -3.47,0.14 -1.81,0.28 -1.52,0.13 -2.22,-0.13"
     stroke-linecap="round"
     id="path10199" />
  <path
     brush-type="3"
     stroke-linejoin="round"
     stroke-wetness="0.50"
     style="fill:none;stroke:#808080;stroke-width:5"
     d="m 90.54,105.85998 1.04,-1.04 1.32,-0.9 3.05,-2.08 5.42,-2.780001 6.52,-2.91 7.5,-2.92 6.8,-2.22 9.3,-3.05 9.16,-3.05 10,-3.19 7.63,-2.22 6.94,-1.81 9.3,-2.22 9.3,-2.08 10.83,-2.36 6.94,-1.25 7.08,-1.11 8.89,-0.55 9.57,-0.56 8.75,-0.14 h 7.91 l 8.33,0.56 9.16,0.97 7.64,1.25 7.22,1.11 7.21,0.83 8.47,1.11 7.5,1.11 8.19,1.81 5.83,1.66 6.25,2.08 5.69,2.36 5.55,2.5 4.86,2.5 4.02,2.22 3.75,2.5 5.14,3.47 4.44,2.91 4.44,2.640001 3.2,1.94 2.91,2.22 3.61,3.19 3.05,2.92 3.2,2.63 2.5,2.08 3.05,2.36 2.78,2.78 2.22,2.08 1.11,1.53 2.63,1.66"
     stroke-linecap="round"
     id="path10201" />
  <path
     brush-type="3"
     stroke-linejoin="round"
     stroke-wetness="0.50"
     style="fill:none;stroke:#808080;stroke-width:5"
     d="m 375.39,122.09998 -2.08,0.21 -2.36,0.21 -4.72,0.55 -9.02,1.81 -13.19,3.33 -15.13,4.44 -10.97,3.6 -10.13,4.03 -8.61,3.61 -8.47,3.74 -6.11,3.2 -5.69,3.19 -6.8,4.3 -5.27,3.61 -5.28,4.16 -3.75,3.19 -4.16,3.89 -4.03,4.58 -3.88,4.99 -3.47,5 -2.64,3.75 -3.33,5.13 -2.64,4.58 -2.08,4.44 -0.7,2.64 -0.14,3.88"
     stroke-linecap="round"
     id="path10203" />
  <path
     brush-type="3"
     stroke-linejoin="round"
     stroke-wetness="0.50"
     style="fill:none;stroke:#0000ff;stroke-width:5"
     d="m 401.21,121.67998 2.08,-0.2 2.64,-0.21 11.24,-0.14 h 9.86"
     stroke-linecap="round"
     id="path10205" />
  <path
     brush-type="3"
     stroke-linejoin="round"
     stroke-wetness="0.50"
     style="fill:none;stroke:#0000ff;stroke-width:5"
     d="m 412.87,127.92998 v 1.46 l -0.14,1.45 -0.41,5.69 -0.28,9.86 0.28,11.24 0.83,9.85 0.28,9.57 -0.56,10.27 -1.11,9.16 -1.25,6.52 -1.25,4.45 -1.39,4.3 -1.8,4.3"
     stroke-linecap="round"
     id="path10207" />
  <path
     brush-type="3"
     stroke-linejoin="round"
     stroke-wetness="0.50"
     style="fill:#0000ff;stroke:#000000;stroke-width:5"
     d="m 392.88,217.84998 1.88,-0.41 1.45,-0.42 7.22,-0.83 10.13,-0.42 9.31,-0.14"
     stroke-linecap="round"
     id="path10209" />
  <path
     brush-type="3"
     stroke-linejoin="round"
     stroke-wetness="0.50"
     style="fill:none;stroke:#0000ff;stroke-width:5"
     d="m 428.28,147.07998 0.42,1.25 0.41,2.5 0.7,5.96 0.41,6.53 0.28,6.24 0.14,3.19"
     stroke-linecap="round"
     id="path10211" />
  <path
     brush-type="3"
     stroke-linejoin="round"
     stroke-wetness="0.50"
     style="fill:none;stroke:#0000ff;stroke-width:5"
     d="m 440.77,154.15998 -1.25,2.29 -0.55,1.73 -0.7,4.16 0.84,3.61 1.66,3.19 2.64,1.67 h 3.19 l 3.33,-1.53 2.78,-3.47 1.94,-4.58 -0.27,-6.24 -2.22,-4.72 -4.31,-2.77 -4.3,0.41 -3.05,0.7"
     stroke-linecap="round"
     id="path10213" />
  <path
     brush-type="3"
     stroke-linejoin="round"
     stroke-wetness="0.50"
     style="fill:none;stroke:#0000ff;stroke-width:5"
     d="m 77.63,237.41998 0.21,1.25 0.21,2.91 0.41,6.8 0.14,7.08 v 5.69 l -0.14,2.22"
     stroke-linecap="round"
     id="path10215" />
  <path
     brush-type="3"
     stroke-linejoin="round"
     stroke-wetness="0.50"
     style="fill:none;stroke:#0000ff;stroke-width:5"
     d="m 82.63,252.40998 1.25,-0.42 6.1,0.28 10.69,-0.14 h 14.58 l 12.21,-0.42 10.55,-0.13 11.66,-0.14 12.22,-0.56 11.24,-0.69 10.42,-1.39 9.57,-1.53 9.72,-1.66 6.11,-1.11 5.27,-0.83 5.83,-0.84 5.14,-0.69 3.75,-0.56 3.19,-0.41"
     stroke-linecap="round"
     id="path10217" />
  <path
     brush-type="3"
     stroke-linejoin="round"
     stroke-wetness="0.50"
     style="fill:none;stroke:#0000ff;stroke-width:5"
     d="m 232.55,224.50998 0.62,1.46 0.35,1.87 0.55,3.75 0.14,4.03 v 4.3 4.3 5.55"
     stroke-linecap="round"
     id="path10219" />
  <path
     brush-type="3"
     stroke-linejoin="round"
     stroke-wetness="0.50"
     style="fill:none;stroke:#0000ff;stroke-width:5"
     d="m 134.68,262.39998 1.25,-0.83 2.08,-0.42 3.34,-0.55 4.16,0.41 2.64,0.97 1.66,1.39 -1.38,2.22 -2.36,2.5 -3.34,2.77 -2.49,2.36 -1.67,2.92 v 2.22 l 1.53,1.39 3.05,0.13 4.58,-0.41 3.89,-0.56 2.36,-0.55"
     stroke-linecap="round"
     id="path10221" />
  <path
     brush-type="3"
     stroke-linejoin="round"
     stroke-wetness="0.50"
     style="fill:none;stroke:#0000ff;stroke-width:5"
     d="m 158.84,272.38998 -0.63,1.46 -0.21,1.46 v 3.05 l 1.39,2.5 4.17,0.69 4.72,-1.39 4.58,-3.47 2.08,-3.47 0.55,-4.02 -2.77,-3.05 -4.44,-1.95 -5.14,0.28 -4.16,2.64 -2.78,2.36"
     stroke-linecap="round"
     id="path10223" />
  <path
     brush-type="3"
     stroke-linejoin="round"
     stroke-wetness="0.50"
     style="fill:none;stroke:#ff0000;stroke-width:5"
     d="m 317.9,65.689979 1.67,-0.83 2.49,-0.41 5.56,-0.56 5.55,-0.14 h 5.55 l 4.31,-0.28 h 4.44 l 4.99,0.42 4.59,0.56 3.88,0.55 1.95,0.14 2.49,0.14"
     stroke-linecap="round"
     id="path10225" />
  <path
     brush-type="3"
     stroke-linejoin="round"
     stroke-wetness="0.50"
     style="fill:none;stroke:#ff0000;stroke-width:5"
     d="m 343.3,65.279979 -0.21,1.87 0.07,1.6 0.14,4.3 0.42,4.58 0.55,6.38 0.42,6.66 0.28,8.89 v 7.910001 l -0.28,7.49 -0.69,6.1 -0.84,5.56 -0.69,7.35 -0.56,7.22 -0.55,7.91 -0.56,5.41 -0.27,4.58 -0.56,5.69 -0.55,5.55 -0.7,5.41 -0.14,3.05 0.14,2.64 0.7,3.05 0.69,3.47 0.56,3.2 0.27,2.22 0.14,2.08 0.14,2.36 v 2.36 l -0.14,1.94 -0.14,2.08 -0.27,2.22 -0.14,2.22 -0.14,1.8 0.28,2.78"
     stroke-linecap="round"
     id="path10227" />
  <path
     brush-type="3"
     stroke-linejoin="round"
     stroke-wetness="0.50"
     style="fill:none;stroke:#ff0000;stroke-width:5"
     d="m 350.38,133.54998 1.67,-1.04 1.8,-0.48 3.06,-0.7 3.19,0.84 2.64,1.52 2.36,1.67 1.52,1.53 0.84,1.38 v 2.36 l -0.7,2.08 -1.25,2.36 -1.66,1.81 -1.95,2.08 -2.91,2.91 -2.5,3.06 -2.5,3.46 -1.25,3.2 -0.83,3.88 0.14,3.47 1.66,3.47"
     stroke-linecap="round"
     id="path10229" />
  <path
     brush-type="3"
     stroke-linejoin="round"
     stroke-wetness="0.50"
     style="fill:none;stroke:#ff0000;stroke-width:5"
     d="m 357.46,181.42998 a 2.5,2.5 0 1 0 0.01,0"
     stroke-linecap="round"
     id="path10231" />
  <path
     brush-type="3"
     stroke-linejoin="round"
     stroke-wetness="0.50"
     style="fill:none;stroke:#0000ff;stroke-width:5"
     d="m 97.6,116.40998 -0.63,3.75 -2.15,4.44 -3.89,6.94 -4.44,4.99 -3.33,2.09 -2.91,1.24 -1.95,0.7"
     stroke-linecap="round"
     id="path10319" />
  <path
     brush-type="3"
     stroke-linejoin="round"
     stroke-wetness="0.50"
     style="fill:none;stroke:#0000ff;stroke-width:5"
     d="m 112.17,144.30998 -0.41,-1.46 -0.56,-1.32 -1.25,-2.64 -1.66,-2.08 -3.06,-1.52 -3.47,-0.56 -4.3,1.11 -2.92,2.08 -1.94,2.64 0.28,2.5 1.25,1.94 2.22,1.11 2.5,-0.56 2.77,-1.24 3.47,-2.92 3.34,-3.19 3.33,-3.47 2.22,-2.36 1.39,-1.53"
     stroke-linecap="round"
     id="path10321" />
  <path
     brush-type="3"
     stroke-linejoin="round"
     stroke-wetness="0.50"
     style="fill:none;stroke:#0000ff;stroke-width:5"
     d="m 88.85,78.939979 1.88,-0.21 4.37,3.27 5.41,4.44 4.17,5.69 0.41,3.74"
     stroke-linecap="round"
     id="path10323" />
  <path
     brush-type="3"
     stroke-linejoin="round"
     stroke-wetness="0.50"
     style="fill:none;stroke:#0000ff;stroke-width:5"
     d="m 115.09,73.529979 -1.46,-1.46 -3.82,-1.87 h -7.35 l -6.53,1.53 -2.64,3.74 1.11,1.53 1.95,0.97 2.91,-0.97 3.06,-2.22 3.05,-3.05 2.08,-2.78 1.67,-2.36 2.5,-3.33"
     stroke-linecap="round"
     id="path10325" />
  <path
     brush-type="3"
     stroke-linejoin="round"
     stroke-wetness="0.50"
     style="fill:none;stroke:#0000ff;stroke-width:5"
     d="m 32.46,112.93998 2.53,-0.23 4.23,-0.38 7.68,-0.46 7.99,-0.16 4.61,0.16"
     stroke-linecap="round"
     id="path10409" />
  <path
     brush-type="3"
     stroke-linejoin="round"
     stroke-wetness="0.50"
     style="fill:none;stroke:#0000ff;stroke-width:5"
     d="m 49.05,113.39998 -0.69,2.54 -0.69,3.3 -1.54,13.21 -1.08,13.2 -0.92,14.9 -0.46,8.14 -0.61,8.91 -0.16,6.75 v 5.69 l 0.16,5.53 0.15,4.91 0.16,4.61 0.3,4.45 0.16,3.53 0.61,3.69"
     stroke-linecap="round"
     id="path10411" />
  <path
     brush-type="3"
     stroke-linejoin="round"
     stroke-wetness="0.50"
     style="fill:none;stroke:#0000ff;stroke-width:5"
     d="m 31.08,221.66998 h 2.07 2.07 4 3.99 l 4.46,-0.3 5.37,-0.16 4,-0.15"
     stroke-linecap="round"
     id="path10413" />
  <path
     brush-type="3"
     stroke-linejoin="round"
     stroke-wetness="0.50"
     style="fill:none;stroke:#0000ff;stroke-width:5"
     d="m 2.5,139.19998 0.23,1.39 0.08,1.38 0.15,5.22 0.16,7.68 0.61,10.9 0.61,7.53"
     stroke-linecap="round"
     id="path10415" />
  <path
     brush-type="3"
     stroke-linejoin="round"
     stroke-wetness="0.50"
     style="fill:none;stroke:#0000ff;stroke-width:5"
     d="m 17.25,153.94998 -0.23,1.61 -0.23,2.07 -0.31,4.15 0.62,5.83 1.84,4 2.15,1.53 1.54,-2.91 0.46,-3.84 -0.46,-4.46 -2.31,-3.22 -3.38,-1.54 -3.53,0.92 -2.15,2.15 -1.08,1.69"
     stroke-linecap="round"
     id="path10417" />
  <path
     brush-type="3"
     stroke-linejoin="round"
     stroke-wetness="0.50"
     style="fill:none;stroke:#000000;stroke-width:5"
     d="m 237.08,71.019979 v 2.07 1.77 3.83"
     stroke-linecap="round"
     id="path10419" />
  <path
     brush-type="3"
     stroke-linejoin="round"
     stroke-wetness="0.50"
     style="fill:none;stroke:#000000;stroke-width:5"
     d="m 237.08,97.279979 v 1.38 1.540001 1.99"
     stroke-linecap="round"
     id="path10421" />
  <path
     brush-type="3"
     stroke-linejoin="round"
     stroke-wetness="0.50"
     style="fill:none;stroke:#000000;stroke-width:5"
     d="m 236.16,137.35998 a 2.5,2.5 0 1 0 0.01,0"
     stroke-linecap="round"
     id="path10423" />
  <path
     brush-type="3"
     stroke-linejoin="round"
     stroke-wetness="0.50"
     style="fill:none;stroke:#000000;stroke-width:5"
     d="m 238.47,121.69998 a 2.5,2.5 0 1 0 0.01,0"
     stroke-linecap="round"
     id="path10425" />
  <path
     brush-type="3"
     stroke-linejoin="round"
     stroke-wetness="0.50"
     style="fill:none;stroke:#000000;stroke-width:5"
     d="m 235.24,157.62998 0.23,1.85 0.08,1.68 0.15,2.31"
     stroke-linecap="round"
     id="path10427" />
  <path
     brush-type="3"
     stroke-linejoin="round"
     stroke-wetness="0.50"
     style="fill:none;stroke:#000000;stroke-width:5"
     d="m 234.32,186.19998 a 2.5,2.5 0 1 0 0.01,0"
     stroke-linecap="round"
     id="path10429" />
  <path
     brush-type="3"
     stroke-linejoin="round"
     stroke-wetness="0.50"
     style="fill:none;stroke:#0000ff;stroke-width:5"
     d="m 85,27.219979 0.23,1.85 -0.08,7.37 v 8.6 l -0.15,7.37"
     stroke-linecap="round"
     id="path10431" />
  <path
     brush-type="3"
     stroke-linejoin="round"
     stroke-wetness="0.50"
     style="fill:none;stroke:#0000ff;stroke-width:5"
     d="m 89.61,39.659979 1.84,-0.46 1.54,-0.3 5.22,-1.08 5.38,-1.07 6.29,-1.08 5.53,-0.77 9.22,-0.92 9.53,-0.92 9.98,-0.77 7.53,-0.61 7.99,-0.62 9.52,-0.46 8.76,-0.3 8.76,-0.16 6.91,-0.15 6.6,-0.15 7.07,-0.31 5.84,-0.31 5.99,-0.31 3.99,-0.3 5.38,-0.62 4.46,-0.61 4.14,-0.46 2.15,-0.31 h 2.92"
     stroke-linecap="round"
     id="path10433" />
  <path
     brush-type="3"
     stroke-linejoin="round"
     stroke-wetness="0.50"
     style="fill:none;stroke:#0000ff;stroke-width:5"
     d="m 245.38,14.319979 0.46,1.62 0.15,1.92 0.31,3.68 -0.15,4.61 v 5.53 5.22 l 0.15,3.22"
     stroke-linecap="round"
     id="path10435" />
  <path
     brush-type="3"
     stroke-linejoin="round"
     stroke-wetness="0.50"
     style="fill:none;stroke:#0000ff;stroke-width:5"
     d="m 144.45,6.4899787 1.15,-0.69 1.15,-0.38 2.62,-0.77 3.53,-0.46 3.07,-0.16 1.38,0.93 -1.07,1.69 -2.61,2.45 -2.92,2.3100003 -3.23,2.61 -2.46,3.22 -1.23,2.77 0.62,1.84 2.3,0.15 4.46,-0.76 4.91,-1.23 5.84,-2.15"
     stroke-linecap="round"
     id="path10437" />
  <path
     brush-type="3"
     stroke-linejoin="round"
     stroke-wetness="0.50"
     style="fill:none;stroke:#0000ff;stroke-width:5"
     d="m 171.18,8.7999787 0.23,1.6100003 0.69,1.61 1.84,2.76 2.62,1.54 h 3.22 l 3.07,-1.69 2.62,-2.3 1.23,-3.0700003 -1.08,-3.23 -2.15,-2.61 -2.92,-0.92 -2.15,1.23 -1.54,1.38"
     stroke-linecap="round"
     id="path10439" />
  <g
     preserveAspectRatio="none"
     type="type-hwr-text"
     id="id-text-layer"
     transform="translate(-22.34,-252.99002)" />
  <defs
     id="defs10477" />
</svg>
