<?xml version="1.0" encoding="UTF-8" standalone="no"?>
<svg
   line-height="20.1"
   version="1.1"
   margin-right="40.0"
   margin-left="79.9"
   background="PaperBackgroundThumb_BlankWhiteBackground.png"
   name=""
   width="445.28"
   margin-top="40.0"
   margin-bottom="40.0"
   height="339.64999"
   id="svg19496"
   sodipodi:docname="laststep.svg"
   inkscape:version="1.1 (c4e8f9ed74, 2021-05-24)"
   xmlns:inkscape="http://www.inkscape.org/namespaces/inkscape"
   xmlns:sodipodi="http://sodipodi.sourceforge.net/DTD/sodipodi-0.dtd"
   xmlns="http://www.w3.org/2000/svg"
   xmlns:svg="http://www.w3.org/2000/svg">
  <sodipodi:namedview
     id="namedview19498"
     pagecolor="#ffffff"
     bordercolor="#666666"
     borderopacity="1.0"
     inkscape:pageshadow="2"
     inkscape:pageopacity="0.0"
     inkscape:pagecheckerboard="0"
     showgrid="false"
     inkscape:zoom="1.12"
     inkscape:cx="333.48214"
     inkscape:cy="167.41071"
     inkscape:window-width="1916"
     inkscape:window-height="1040"
     inkscape:window-x="0"
     inkscape:window-y="18"
     inkscape:window-maximized="1"
     inkscape:current-layer="svg19496" />
  <g
     preserveAspectRatio="none"
     type="type-hwr-text"
     id="id-text-layer"
     transform="translate(-65.92976,-1616.7546)" />
  <defs
     id="defs19494" />
  <path
     brush-type="3"
     stroke-linejoin="round"
     stroke-wetness="0.50"
     style="fill:none;stroke:#000000;stroke-width:5"
     d="m 114.03,88.669999 1.15,6.22 1.46,10.060001 2,17.5 1.23,16.13 0.15,11.67 -0.15,8.75 -0.31,11.21 -0.31,9.99 -0.15,9.21 0.15,7.68 0.31,6.91 0.46,8.45 0.46,7.06 0.62,6.76 0.46,4.76 0.3,4.61 v 4.3 l -0.15,3.84 -0.61,2.76 -0.77,2.31 -1.38,2.61 -1.23,1.69 -1.39,1.38 1.39,0.15 2.92,-0.15 6.45,-0.31 h 6.6 l 8.15,0.46 8.45,0.62 9.06,0.46 15.36,0.15 16.29,-0.15 17.35,-0.31 12.29,-0.46 18.29,-0.77 18.43,-0.61 20.59,-0.16 14.28,0.46 14.6,0.46 18.28,0.46 17.97,0.47 17.36,0.61 12.45,0.61 14.44,0.31 h 13.21 l 10.9,-0.46 6.76,-0.31 6.61,-0.15 6.14,0.31 5.23,0.3 3.68,0.46 h 2.92"
     stroke-linecap="round"
     id="path19422" />
  <path
     brush-type="3"
     stroke-linejoin="round"
     stroke-wetness="0.50"
     style="fill:none;stroke:#808080;stroke-width:5"
     d="m 114.95,87.279999 5.99,-1.61 6.3,-0.69 11.83,-0.77 11.98,1.23 9.37,2 8.3,2.15 6.14,1.69 6.61,1.84 9.83,3.53 9.37,3.840001 8.91,3.69 5.84,2.3 7.53,2.77 9.83,3.83 9.83,4 9.07,3.84 7.37,3.22 5.99,2.77 8.14,4.45 7.84,4.76 7.99,5.22 5.53,4 6.6,5.22 6.61,5.37 6.3,5.53 4.76,4.45 4.61,4.46 5.38,5.99 4.76,5.83 4.45,5.99 3.08,4.61 3.22,5.99 2.92,6.3 2.3,6.14 1.69,4.61 1.54,4.76 1.38,5.37 1.08,5.22 0.92,4.92 0.77,3.53 0.77,4.92 0.61,4.14 0.46,3.99 0.46,2.31 0.46,2.46 1.08,3.22 1.69,4.3"
     stroke-linecap="round"
     id="path19424" />
  <path
     brush-type="3"
     stroke-linejoin="round"
     stroke-wetness="0.50"
     style="fill:none;stroke:#0000ff;stroke-width:5"
     d="m 119.56,274.34 v 2.53 2.38 l 0.15,7.53 0.46,6.76 0.47,5.22"
     stroke-linecap="round"
     id="path19426" />
  <path
     brush-type="3"
     stroke-linejoin="round"
     stroke-wetness="0.50"
     style="fill:none;stroke:#0000ff;stroke-width:5"
     d="m 123.71,290.46 2.53,-0.46 2.23,-0.3 5.38,-0.62 5.68,-0.31 h 7.99 l 7.37,0.31 10.14,0.62 14.29,0.3 15.52,-0.15 14.59,-0.77 11.06,-0.77 11.83,-0.3 11.52,0.3 11.68,0.93 14.28,1.07 13.22,0.61 12.44,0.16 8.91,0.15 9.06,0.31 9.68,0.77 8.6,0.46 7.69,0.46 h 5.53 5.07 l 4.91,-0.16 3.38,-0.15 4.15,-0.15"
     stroke-linecap="round"
     id="path19428" />
  <path
     brush-type="3"
     stroke-linejoin="round"
     stroke-wetness="0.50"
     style="fill:none;stroke:#0000ff;stroke-width:5"
     d="m 365.2,277.56 -1.15,3.92 -0.54,2.84 -1.07,5.84 -0.31,5.07 v 4.91 l 0.31,3.84 0.31,2"
     stroke-linecap="round"
     id="path19430" />
  <path
     brush-type="3"
     stroke-linejoin="round"
     stroke-wetness="0.50"
     style="fill:none;stroke:#0000ff;stroke-width:5"
     d="m 220.03,301.98 -1.61,0.92 -1.31,1.23 -4.61,6.3 -2.76,7.52 1.53,5.99 5.53,0.77 5.69,-1.38 2.15,-0.77"
     stroke-linecap="round"
     id="path19432" />
  <path
     brush-type="3"
     stroke-linejoin="round"
     stroke-wetness="0.50"
     style="fill:none;stroke:#0000ff;stroke-width:5"
     d="m 220.49,318.11 0.23,1.38 -0.08,1.54 -0.15,3.68 -0.31,4.15 -0.15,4.14 0.31,4.15"
     stroke-linecap="round"
     id="path19434" />
  <path
     brush-type="3"
     stroke-linejoin="round"
     stroke-wetness="0.50"
     style="fill:none;stroke:#0000ff;stroke-width:5"
     d="m 238.93,309.35 -0.7,3 -0.07,2.69 0.15,4.91 1.54,4.3 3.68,3.07 4.46,0.46 4.15,-2.3 2.15,-4.61 0.46,-5.07 -2.15,-5.68 -3.69,-3.84 -4.91,-1.53 -4.15,1.23 -3.84,1.99 -2.15,1.54"
     stroke-linecap="round"
     id="path19436" />
  <path
     brush-type="3"
     stroke-linejoin="round"
     stroke-wetness="0.50"
     style="fill:none;stroke:#ff0000;stroke-width:5"
     d="m 37.06,85.439999 2.77,-0.46 2.77,-0.61 5.37,-0.93 7.22,-0.92 6.45,-0.61 4.77,-0.46"
     stroke-linecap="round"
     id="path19438" />
  <path
     brush-type="3"
     stroke-linejoin="round"
     stroke-wetness="0.50"
     style="fill:none;stroke:#ff0000;stroke-width:5"
     d="m 52.73,84.519999 0.23,2.53 0.24,2.54 0.3,5.07 0.16,7.210001 0.15,8.14 0.46,7.99 0.77,6.91 0.77,8.6 0.61,8.75 0.46,10.45 0.46,7.83 0.46,7.68 0.46,7.52 0.31,7.68 0.31,7.68 0.31,5.53 0.46,5.07 0.61,4.76 0.62,3.84 0.76,3.99 0.47,3.69 0.46,3.99 0.15,3.69 -0.15,5.37 -0.46,5.22 -0.62,4.92 -0.31,3.07 -0.15,2.46 v 2.3 l 0.31,2.46 0.61,2.45 1.23,2.46"
     stroke-linecap="round"
     id="path19440" />
  <path
     brush-type="3"
     stroke-linejoin="round"
     stroke-wetness="0.50"
     style="fill:none;stroke:#ff0000;stroke-width:5"
     d="m 46.28,255.45 h 1.38 l 1.69,-0.15 3.08,-0.31 3.53,-0.31 3.53,0.15 4,0.62 3.53,0.77 3.23,0.3 h 1.84"
     stroke-linecap="round"
     id="path19442" />
  <path
     brush-type="3"
     stroke-linejoin="round"
     stroke-wetness="0.50"
     style="fill:none;stroke:#ff0000;stroke-width:5"
     d="m 2.5,127.37 0.92,-1.38 0.92,-0.93 4.15,-2.3 6.15,0.77 5.83,3.68 2.77,5.99 -0.31,5.69 -1.38,4.91 -2.31,5.38 -2.45,4.91 -2.46,5.99 -1.38,4.15"
     stroke-linecap="round"
     id="path19444" />
  <path
     brush-type="3"
     stroke-linejoin="round"
     stroke-wetness="0.50"
     style="fill:none;stroke:#ff0000;stroke-width:5"
     d="m 17.25,182.19 a 2.5,2.5 0 1 0 0.01,0"
     stroke-linecap="round"
     id="path19446" />
  <path
     brush-type="3"
     stroke-linejoin="round"
     stroke-wetness="0.50"
     style="fill:none;stroke:#000000;stroke-width:5"
     d="m 70.49,86.689999 h 1.84 2.46 l 5.99,0.31 5.69,0.46 4.91,0.46 h 2.92 l 3.07,-0.31 3.23,-0.31 2.92,-0.15 3.07,-0.46 2.3,-0.61 2.46,-0.77"
     stroke-linecap="round"
     id="path19448" />
  <path
     brush-type="3"
     stroke-linejoin="round"
     stroke-wetness="0.50"
     style="fill:none;stroke:#000000;stroke-width:5"
     d="m 238.54,114.65 1.24,-0.24 -0.91,0.24 -0.82,0.83 -2.15,0.99 -1.32,0.5 -0.17,-1.16 1.65,-1.32 2.48,-1.16 1.82,0.33 -0.83,1.33 -1.81,1.15 -2.15,0.33 -0.83,-0.99 0.33,-1.65 1.16,-1.98 2.97,-2.32 2.98,-1.32 2.31,-0.33 v 0.99 l -1.15,1.49 -2.81,2.15 -2.98,1.48 -2.48,0.5 0.5,-1.98 2.15,-2.15 2.81,-1.82 1.81,-0.33 -0.49,0.99 -2.15,1.49 -3.14,1.65 -2.81,0.83 -1.82,0.16 v -0.82 l 1.49,-0.99 2.31,-0.83"
     stroke-linecap="round"
     id="path19450" />
  <path
     brush-type="3"
     stroke-linejoin="round"
     stroke-wetness="0.50"
     style="fill:none;stroke:#000000;stroke-width:5"
     d="m 77.14,83.559999 2.06,-6.06 2.13,-6.07 3.25,-9.16 2.17,-5.85 1.15,-2.74 0.87,-1.88 1.37,-0.29 1.59,2.6 2.09,4.55 1.74,4.69 2.09,5.41 1.73,4.48 1.74,4.55 1.08,2.88 1.73,3.97"
     stroke-linecap="round"
     id="path19452" />
  <path
     brush-type="3"
     stroke-linejoin="round"
     stroke-wetness="0.50"
     style="fill:none;stroke:#000000;stroke-width:5"
     d="m 88.62,46.529999 v -1.62 l 0.08,-2.06 0.07,-4.04 0.07,-3.61 -0.07,-2.67 -0.07,-2.17 -0.08,-2.24 -0.14,-2.74 -0.51,-3.18"
     stroke-linecap="round"
     id="path19454" />
  <path
     brush-type="3"
     stroke-linejoin="round"
     stroke-wetness="0.50"
     style="fill:none;stroke:#000000;stroke-width:5"
     d="m 85.37,9.7099986 -1.94,2.9300004 -0.51,2.13 -0.87,3.82 1.52,2.89 1.95,1.81 2.24,0.93 2.45,-0.79 2.46,-1.44 2.24,-1.95 1.01,-2.67 0.29,-2.75 -0.51,-2.81 -1.15,-1.9500004 -2.46,-1.95 -2.6,-1.16 -2.6,-0.36 -2.02,0.87 -1.44,0.79"
     stroke-linecap="round"
     id="path19456" />
  <path
     brush-type="3"
     stroke-linejoin="round"
     stroke-wetness="0.50"
     style="fill:none;stroke:#000000;stroke-width:5"
     d="m 90.57,29.639999 2.71,-0.76 1.48,-0.54 3.76,-2.02 2.52,-2.1 2.6,-2.52 1.66,-2.1 1.38,-2.16 0.79,-2.82 0.22,-2.38 -0.29,-2.09 -0.65,-1.0900004 -1.01,-1.22 -1.95,-1.81 -2.24,-1.66 -2.31,-1.3 -1.95,-0.43 -2.09,-0.14 -3.04,0.5 -4.47,1.52"
     stroke-linecap="round"
     id="path19458" />
  <path
     brush-type="3"
     stroke-linejoin="round"
     stroke-wetness="0.50"
     style="fill:none;stroke:#000000;stroke-width:5"
     d="m 86.67,30.499999 -2.16,1.85 -1.95,1.76 -3.9,3.61 -3.18,3.11 -2.31,2.38 -1.44,1.59 -1.52,2.45"
     stroke-linecap="round"
     id="path19460" />
  <path
     brush-type="3"
     stroke-linejoin="round"
     stroke-wetness="0.50"
     style="fill:none;stroke:#0000ff;stroke-width:5"
     d="m 252.32,114.3 1.43,0.21 5.42,0.2 10.56,0.42 12.2,0.13 h 7.95 l 4.53,-0.13"
     stroke-linecap="round"
     id="path19464" />
  <path
     brush-type="3"
     stroke-linejoin="round"
     stroke-wetness="0.50"
     style="fill:none;stroke:#0000ff;stroke-width:5"
     d="m 272.47,117.59 0.21,1.24 0.07,1.64 0.13,3.84 v 6.17 7.26 l 0.28,7.82 0.41,8.08 0.41,8.78 v 8.63 8.5 6.99 l 0.27,8.64 v 7.53 l -0.13,7.54 -0.41,5.76 -0.42,4.94 -0.54,5.89 -0.55,5.48 -0.41,5.21 -0.14,3.84 0.27,3.43 0.28,2.33"
     stroke-linecap="round"
     id="path19466" />
  <path
     brush-type="3"
     stroke-linejoin="round"
     stroke-wetness="0.50"
     style="fill:none;stroke:#0000ff;stroke-width:5"
     d="m 297.56,170.23 0.21,1.85 0.07,5.14 0.13,10.69 v 9.46"
     stroke-linecap="round"
     id="path19468" />
  <path
     brush-type="3"
     stroke-linejoin="round"
     stroke-wetness="0.50"
     style="fill:none;stroke:#0000ff;stroke-width:5"
     d="m 309.49,188.73 -0.61,1.65 -0.21,1.64 -0.27,3.16 0.68,3.01 1.51,2.47 2.06,1.51 2.74,-0.96 2.19,-3.02 1.37,-4.66 -0.27,-4.66 -1.1,-3.84 -2.47,-2.88 -3.15,-1.23 -3.02,-0.41 -2.19,0.96"
     stroke-linecap="round"
     id="path19470" />
  <path
     brush-type="3"
     stroke-linejoin="round"
     stroke-wetness="0.50"
     style="fill:none;stroke:#0000ff;stroke-width:5"
     d="m 126.44,141.85 2.27,0.42 2.12,0.13 4.25,0.14 4.66,-0.14 5.35,-0.13 7.54,0.13 11.38,0.14 12.62,0.14 h 10.69 l 8.23,-0.14 h 7.27 l 7.95,0.14 7.81,0.27 6.45,0.14 h 4.94 l 2.74,0.14 2.19,0.27 1.92,0.55 2.33,1.09"
     stroke-linecap="round"
     id="path19474" />
  <path
     brush-type="3"
     stroke-linejoin="round"
     stroke-wetness="0.50"
     style="fill:none;stroke:#0000ff;stroke-width:5"
     d="m 235.04,129.11 0.62,1.44 0.2,1.57 0.41,3.43 v 4.25 5.21 l 0.41,7.13 0.55,6.3 0.55,4.25"
     stroke-linecap="round"
     id="path19476" />
  <path
     brush-type="3"
     stroke-linejoin="round"
     stroke-wetness="0.50"
     style="fill:none;stroke:#0000ff;stroke-width:5"
     d="m 156.88,154.57 1.65,-0.21 1.78,-0.06 2.47,0.82 0.69,2.19 -1.51,3.29 -2.75,3.7 -2.46,3.29 -1.65,2.74 -0.41,2.2 0.96,1.92 1.92,1.37 2.6,0.41 3.02,-0.69 3.43,-1.23 2.6,-1.1"
     stroke-linecap="round"
     id="path19478" />
  <path
     brush-type="3"
     stroke-linejoin="round"
     stroke-wetness="0.50"
     style="fill:none;stroke:#0000ff;stroke-width:5"
     d="m 180.33,161.56 -0.41,1.23 -0.28,1.1 -0.41,2.47 v 2.47 l 1.37,2.6 2.34,1.37 4.93,-2.47 3.98,-4.11 3.29,-4.8 0.41,-2.6 -0.55,-3.15 -1.37,-2.33 -2.06,-1.37 -2.19,0.41 -2.33,1.09 -1.51,0.96"
     stroke-linecap="round"
     id="path19480" />
  <path
     brush-type="3"
     stroke-linejoin="round"
     stroke-wetness="0.50"
     style="fill:none;stroke:#000000;stroke-width:5"
     d="m 239.15,115.92 h -1.64 l -0.83,-0.28 -0.96,-1.1 0.55,-1.5 1.37,-1.37 1.51,-0.55 1.37,0.41 0.28,-0.69 v -0.96 h -0.14 v 1.51 l -1.1,1.92 -1.5,0.28 -1.38,-0.55 -0.41,-1.1 0.28,-1.64 0.82,-1.1 1.1,0.27 0.68,1.24 0.28,1.64 -0.83,0.96 -1.37,0.55 -1.51,-0.14 -0.68,-1.09 0.27,-1.38 0.83,-1.23 1.37,-0.41 1.09,1.1 0.55,1.5 -0.13,-0.13 v -1.51 l 0.54,-2.06 1.1,-0.13 0.69,1.09 0.13,1.65 -0.82,1.37 -1.23,0.55 -1.65,0.13 -1.37,-0.27 -0.69,-1.23 0.69,-1.51 1.1,-1.24 1.51,0.14 0.96,0.96 0.68,1.65 v 1.37 l -0.55,1.23 -1.23,0.55 -1.37,0.14 -1.51,-0.83 -0.96,-1.23 -0.28,-1.92 1.1,-1.64 1.65,-1.24 h 1.92 l 1.5,0.82 1.38,1.65 0.68,1.64 -0.14,1.51 -0.96,0.96 -1.5,0.55 -2.33,0.14 -2.06,-0.41 -1.65,-0.83 0.28,-1.78 0.96,-1.78 1.51,-1.51 1.23,-0.41 h 1.51 l 1.37,0.41 1.1,1.51 0.27,1.78 -0.41,2.06 -1.1,1.37 -2.19,1.09 -2.2,0.55 -2.05,-0.13 -1.1,-0.83 -0.68,-1.23 0.27,-2.06 0.96,-1.92 1.37,-1.78 1.23,-0.82 1.79,-0.55 1.78,-0.13 1.78,0.27 1.1,0.68 0.68,1.51 v 1.51 l -0.68,1.65 -1.37,0.95 -1.65,0.42 -1.37,-0.69 -0.68,-2.6"
     stroke-linecap="round"
     id="path19482" />
  <path
     brush-type="3"
     stroke-linejoin="round"
     stroke-wetness="0.50"
     style="fill:none;stroke:#d67300;stroke-width:5"
     d="m 228.46,58.349999 -0.62,1.64 -0.89,2.74 -1.92,6.44 -1.78,6.99 -1.1,6.04 v 3.97 l 0.82,2.88 2.88,1.51 h 3.7 l 4.25,-1.1 3.16,-1.92 2.88,-3.01 1.64,-3.57 0.28,-3.15 -1.37,-1.92 -1.92,-0.96 -2.47,-0.68 -2.47,-0.42 -1.78,-0.27 0.55,-0.14 2.6,-0.55 3.7,-1.23 4.25,-2.88 3.3,-3.15 2.05,-3.43 -0.14,-2.33 -2.6,-2.74 -3.7,-1.78 -4.25,-1.1 h -3.29 -2.06"
     stroke-linecap="round"
     id="path19484" />
  <path
     brush-type="3"
     stroke-linejoin="round"
     stroke-wetness="0.50"
     style="fill:none;stroke:#d67300;stroke-width:5"
     d="m 126.03,72.739999 v -1.65 l 0.96,-3.97 1.65,-6.03 2.6,-6.99 1.92,-3.98 1.65,-2.47 1.64,1.1 1.92,3.02 1.92,4.24 1.37,5.62 0.83,4.94 0.54,4.52 0.28,3.02"
     stroke-linecap="round"
     id="path19486" />
  <path
     brush-type="3"
     stroke-linejoin="round"
     stroke-wetness="0.50"
     style="fill:none;stroke:#d67300;stroke-width:5"
     d="m 125.62,65.749999 1.44,-0.41 1.85,-0.69 3.7,-1.37 4.67,-1.78 4.8,-1.78 5.75,-2.06"
     stroke-linecap="round"
     id="path19488" />
  <path
     brush-type="3"
     stroke-linejoin="round"
     stroke-wetness="0.50"
     style="fill:none;stroke:#d67300;stroke-width:5"
     d="m 383.95,218.27 h -1.44 l -2.27,0.68 -4.11,1.65 -3.98,2.46 -2.74,2.74 -1.92,2.88 -1.1,3.29 -0.27,3.16 1.92,3.28 2.74,2.2 3.29,1.51 3.84,0.13"
     stroke-linecap="round"
     id="path19490" />
</svg>
