<?xml version="1.0" encoding="UTF-8" standalone="no"?>
<svg
   line-height="20"
   version="1.1"
   margin-right="40.0"
   margin-left="80.0"
   background="PaperBackgroundThumb_BlankWhiteBackground.png"
   name=""
   width="445.28"
   margin-top="40.0"
   margin-bottom="40.0"
   height="331.85999"
   id="svg10479"
   sodipodi:docname="newperspective.svg"
   inkscape:version="1.1 (c4e8f9ed74, 2021-05-24)"
   xmlns:inkscape="http://www.inkscape.org/namespaces/inkscape"
   xmlns:sodipodi="http://sodipodi.sourceforge.net/DTD/sodipodi-0.dtd"
   xmlns="http://www.w3.org/2000/svg"
   xmlns:svg="http://www.w3.org/2000/svg">
  <sodipodi:namedview
     id="namedview10481"
     pagecolor="#ffffff"
     bordercolor="#666666"
     borderopacity="1.0"
     inkscape:pageshadow="2"
     inkscape:pageopacity="0.0"
     inkscape:pagecheckerboard="0"
     showgrid="false"
     inkscape:zoom="0.69609375"
     inkscape:cx="334.00673"
     inkscape:cy="-15.084175"
     inkscape:window-width="956"
     inkscape:window-height="1040"
     inkscape:window-x="960"
     inkscape:window-y="18"
     inkscape:window-maximized="1"
     inkscape:current-layer="svg10479" />
  <path
     brush-type="3"
     stroke-linejoin="round"
     stroke-wetness="0.50"
     style="fill:none;stroke:#000000;stroke-width:5"
     d="m 114.03,80.879995 1.15,6.22 1.46,10.06 2,17.500005 1.23,16.13 0.15,11.67 -0.15,8.75 -0.31,11.21 -0.31,9.99 -0.15,9.21 0.15,7.68 0.31,6.91 0.46,8.45 0.46,7.06 0.62,6.76 0.46,4.76 0.3,4.61 v 4.3 l -0.15,3.84 -0.61,2.76 -0.77,2.31 -1.38,2.61 -1.23,1.69 -1.39,1.38 1.39,0.15 2.92,-0.15 6.45,-0.31 h 6.6 l 8.15,0.46 8.45,0.62 9.06,0.46 15.36,0.15 16.29,-0.15 17.35,-0.31 12.29,-0.46 18.29,-0.77 18.43,-0.61 20.59,-0.16 14.28,0.46 14.6,0.46 18.28,0.46 17.97,0.47 17.36,0.61 12.45,0.61 14.44,0.31 h 13.21 l 10.9,-0.46 6.76,-0.31 6.61,-0.15 6.14,0.31 5.23,0.3 3.68,0.46 h 2.92"
     stroke-linecap="round"
     id="path10363" />
  <path
     brush-type="3"
     stroke-linejoin="round"
     stroke-wetness="0.50"
     style="fill:none;stroke:#808080;stroke-width:5"
     d="m 114.95,79.489995 5.99,-1.61 6.3,-0.69 11.83,-0.77 11.98,1.23 9.37,2 8.3,2.15 6.14,1.69 6.61,1.84 9.83,3.53 9.37,3.84 8.91,3.69 5.84,2.3 7.53,2.770005 9.83,3.83 9.83,4 9.07,3.84 7.37,3.22 5.99,2.77 8.14,4.45 7.84,4.76 7.99,5.22 5.53,4 6.6,5.22 6.61,5.37 6.3,5.53 4.76,4.45 4.61,4.46 5.38,5.99 4.76,5.83 4.45,5.99 3.08,4.61 3.22,5.99 2.92,6.3 2.3,6.14 1.69,4.61 1.54,4.76 1.38,5.37 1.08,5.22 0.92,4.92 0.77,3.53 0.77,4.92 0.61,4.14 0.46,3.99 0.46,2.31 0.46,2.46 1.08,3.22 1.69,4.3"
     stroke-linecap="round"
     id="path10365" />
  <path
     brush-type="3"
     stroke-linejoin="round"
     stroke-wetness="0.50"
     style="fill:none;stroke:#0000ff;stroke-width:5"
     d="m 119.56,266.55 v 2.53 2.38 l 0.15,7.53 0.46,6.76 0.47,5.22"
     stroke-linecap="round"
     id="path10367" />
  <path
     brush-type="3"
     stroke-linejoin="round"
     stroke-wetness="0.50"
     style="fill:none;stroke:#0000ff;stroke-width:5"
     d="m 123.71,282.67 2.53,-0.46 2.23,-0.3 5.38,-0.62 5.68,-0.31 h 7.99 l 7.37,0.31 10.14,0.62 14.29,0.3 15.52,-0.15 14.59,-0.77 11.06,-0.77 11.83,-0.3 11.52,0.3 11.68,0.93 14.28,1.07 13.22,0.61 12.44,0.16 8.91,0.15 9.06,0.31 9.68,0.77 8.6,0.46 7.69,0.46 h 5.53 5.07 l 4.91,-0.16 3.38,-0.15 4.15,-0.15"
     stroke-linecap="round"
     id="path10369" />
  <path
     brush-type="3"
     stroke-linejoin="round"
     stroke-wetness="0.50"
     style="fill:none;stroke:#0000ff;stroke-width:5"
     d="m 365.2,269.77 -1.15,3.92 -0.54,2.84 -1.07,5.84 -0.31,5.07 v 4.91 l 0.31,3.84 0.31,2"
     stroke-linecap="round"
     id="path10371" />
  <path
     brush-type="3"
     stroke-linejoin="round"
     stroke-wetness="0.50"
     style="fill:none;stroke:#0000ff;stroke-width:5"
     d="m 220.03,294.19 -1.61,0.92 -1.31,1.23 -4.61,6.3 -2.76,7.52 1.53,5.99 5.53,0.77 5.69,-1.38 2.15,-0.77"
     stroke-linecap="round"
     id="path10373" />
  <path
     brush-type="3"
     stroke-linejoin="round"
     stroke-wetness="0.50"
     style="fill:none;stroke:#0000ff;stroke-width:5"
     d="m 220.49,310.32 0.23,1.38 -0.08,1.54 -0.15,3.68 -0.31,4.15 -0.15,4.14 0.31,4.15"
     stroke-linecap="round"
     id="path10375" />
  <path
     brush-type="3"
     stroke-linejoin="round"
     stroke-wetness="0.50"
     style="fill:none;stroke:#0000ff;stroke-width:5"
     d="m 238.93,301.56 -0.7,3 -0.07,2.69 0.15,4.91 1.54,4.3 3.68,3.07 4.46,0.46 4.15,-2.3 2.15,-4.61 0.46,-5.07 -2.15,-5.68 -3.69,-3.84 -4.91,-1.53 -4.15,1.23 -3.84,1.99 -2.15,1.54"
     stroke-linecap="round"
     id="path10377" />
  <path
     brush-type="3"
     stroke-linejoin="round"
     stroke-wetness="0.50"
     style="fill:none;stroke:#ff0000;stroke-width:5"
     d="m 37.06,77.649995 2.77,-0.46 2.77,-0.61 5.37,-0.93 7.22,-0.92 6.45,-0.61 4.77,-0.46"
     stroke-linecap="round"
     id="path10379" />
  <path
     brush-type="3"
     stroke-linejoin="round"
     stroke-wetness="0.50"
     style="fill:none;stroke:#ff0000;stroke-width:5"
     d="m 52.73,76.729995 0.23,2.53 0.24,2.54 0.3,5.07 0.16,7.21 0.15,8.140005 0.46,7.99 0.77,6.91 0.77,8.6 0.61,8.75 0.46,10.45 0.46,7.83 0.46,7.68 0.46,7.52 0.31,7.68 0.31,7.68 0.31,5.53 0.46,5.07 0.61,4.76 0.62,3.84 0.76,3.99 0.47,3.69 0.46,3.99 0.15,3.69 -0.15,5.37 -0.46,5.22 -0.62,4.92 -0.31,3.07 -0.15,2.46 v 2.3 l 0.31,2.46 0.61,2.45 1.23,2.46"
     stroke-linecap="round"
     id="path10381" />
  <path
     brush-type="3"
     stroke-linejoin="round"
     stroke-wetness="0.50"
     style="fill:none;stroke:#ff0000;stroke-width:5"
     d="m 46.28,247.66 h 1.38 l 1.69,-0.15 3.08,-0.31 3.53,-0.31 3.53,0.15 4,0.62 3.53,0.77 3.23,0.3 h 1.84"
     stroke-linecap="round"
     id="path10383" />
  <path
     brush-type="3"
     stroke-linejoin="round"
     stroke-wetness="0.50"
     style="fill:none;stroke:#ff0000;stroke-width:5"
     d="m 2.5,119.58 0.92,-1.38 0.92,-0.93 4.15,-2.3 6.15,0.77 5.83,3.68 2.77,5.99 -0.31,5.69 -1.38,4.91 -2.31,5.38 -2.45,4.91 -2.46,5.99 -1.38,4.15"
     stroke-linecap="round"
     id="path10385" />
  <path
     brush-type="3"
     stroke-linejoin="round"
     stroke-wetness="0.50"
     style="fill:none;stroke:#ff0000;stroke-width:5"
     d="m 17.25,174.4 a 2.5,2.5 0 1 0 0.01,0"
     stroke-linecap="round"
     id="path10387" />
  <path
     brush-type="3"
     stroke-linejoin="round"
     stroke-wetness="0.50"
     style="fill:none;stroke:#000000;stroke-width:5"
     d="m 70.49,78.899995 h 1.84 2.46 l 5.99,0.31 5.69,0.46 4.91,0.46 h 2.92 l 3.07,-0.31 3.23,-0.31 2.92,-0.15 3.07,-0.46 2.3,-0.61 2.46,-0.77"
     stroke-linecap="round"
     id="path10459" />
  <path
     brush-type="3"
     stroke-linejoin="round"
     stroke-wetness="0.50"
     style="fill:none;stroke:#000000;stroke-width:5"
     d="m 111.65,73.809995 0.53,1.33 0.95,-0.51 1.36,0.06 0.41,0.42 -0.71,1.3 -1.6,0.65 -1,-1.54 -0.3,-2.01 0.65,-1.65 1.54,-0.42 1.18,0.59 0.65,1.25 -0.59,1.35 -1,1.13 -1.72,0.47 -1.65,-0.3 -0.95,-1.47 0.36,-1.66 1.36,-1.59 1.47,-0.53 1.25,0.47 0.29,1.18 -0.65,1.42 -1.18,0.53 -0.06,-0.89"
     stroke-linecap="round"
     id="path10461" />
  <path
     brush-type="3"
     stroke-linejoin="round"
     stroke-wetness="0.50"
     style="fill:none;stroke:#000000;stroke-width:5"
     d="m 91.08,7.5199953 -1.77,0.27 -1.3,0.73 -2.25,1.42 -1.24,1.7699997 -0.59,1.89 -0.18,2.13 0.71,2.9 1.6,2.77 2.3,2.25 2.72,1.24 2.54,0.53 3.85,-1.06 3.3,-2.13 3.08,-2.72 1.3,-2.42 0.71,-2.66 -0.77,-4.07 -1.54,-3.5499997 -2.36,-2.95 -2.01,-1.01 -2.84,-0.35 -4.19,1.3 -3.49,1.42"
     stroke-linecap="round"
     id="path10463" />
  <path
     brush-type="3"
     stroke-linejoin="round"
     stroke-wetness="0.50"
     style="fill:none;stroke:#000000;stroke-width:5"
     d="m 93.56,25.419995 0.18,1.51 0.18,1.8 0.24,3.13 0.11,2.84 0.06,2.36 0.06,2.07 0.12,2.95 0.06,2.84 0.12,2.71 0.59,2.72"
     stroke-linecap="round"
     id="path10465" />
  <path
     brush-type="3"
     stroke-linejoin="round"
     stroke-wetness="0.50"
     style="fill:none;stroke:#000000;stroke-width:5"
     d="m 95.87,51.299995 0.97,2.92 0.92,2.81 1.48,4.55 1,3.25 0.71,2.83 0.53,2.54 0.77,2.96"
     stroke-linecap="round"
     id="path10467" />
  <path
     brush-type="3"
     stroke-linejoin="round"
     stroke-wetness="0.50"
     style="fill:none;stroke:#000000;stroke-width:5"
     d="m 93.92,50.409995 -0.8,1.15 -0.56,0.86 -1.6,2.42 -1.35,2.13 -1.3,2.01 -0.71,1.18 -0.95,1.24 -1.24,0.77 -1.66,0.18 -1.47,-0.48 -1.6,-0.41 -1.59,-0.18 -1.84,-0.06 -2.18,0.06 -2.96,0.3 -3.01,0.47 -2.96,0.71 -2.83,0.77 -2.78,0.77 -1.83,0.47"
     stroke-linecap="round"
     id="path10469" />
  <path
     brush-type="3"
     stroke-linejoin="round"
     stroke-wetness="0.50"
     style="fill:none;stroke:#000000;stroke-width:5"
     d="m 95.34,35.519995 3.72,0.62 2.72,0.56 4.61,0.89 3.43,0.71 2.48,0.41 2.95,0.06 2.25,-0.59 2.25,-1.12 1.71,-1.6 1.71,-1.77 1.78,-1.95 2.24,-2.36"
     stroke-linecap="round"
     id="path10471" />
  <path
     brush-type="3"
     stroke-linejoin="round"
     stroke-wetness="0.50"
     style="fill:none;stroke:#000000;stroke-width:5"
     d="m 90.91,36.759995 -1.95,0.62 -1.25,0.57 -3.07,1.35 -2.42,1.3 -2.48,1.19 -1.72,0.82 -1.89,0.89 -1.71,0.77 -1.54,0.65 -2.19,1.06"
     stroke-linecap="round"
     id="path10473" />
  <g
     preserveAspectRatio="none"
     type="type-hwr-text"
     id="id-text-layer"
     transform="translate(-42.62,-757.94)" />
  <defs
     id="defs10477" />
</svg>
