<?xml version="1.0" encoding="UTF-8" standalone="no"?>
<svg
   line-height="20.1"
   version="1.1"
   margin-right="40.0"
   margin-left="79.9"
   background="PaperBackgroundThumb_BlankWhiteBackground.png"
   name=""
   width="451.78"
   margin-top="40.0"
   margin-bottom="40.0"
   height="254.2"
   id="svg29415"
   sodipodi:docname="quadratic.svg"
   inkscape:version="1.1 (c4e8f9ed74, 2021-05-24)"
   xmlns:inkscape="http://www.inkscape.org/namespaces/inkscape"
   xmlns:sodipodi="http://sodipodi.sourceforge.net/DTD/sodipodi-0.dtd"
   xmlns="http://www.w3.org/2000/svg"
   xmlns:svg="http://www.w3.org/2000/svg">
  <sodipodi:namedview
     id="namedview29417"
     pagecolor="#ffffff"
     bordercolor="#666666"
     borderopacity="1.0"
     inkscape:pageshadow="2"
     inkscape:pageopacity="0.0"
     inkscape:pagecheckerboard="0"
     showgrid="false"
     inkscape:zoom="1.4817312"
     inkscape:cx="333.73125"
     inkscape:cy="17.884485"
     inkscape:window-width="956"
     inkscape:window-height="1040"
     inkscape:window-x="960"
     inkscape:window-y="18"
     inkscape:window-maximized="1"
     inkscape:current-layer="svg29415" />
  <defs
     id="defs29413" />
  <path
     brush-type="3"
     stroke-linejoin="round"
     stroke-wetness="0.50"
     style="fill:none;stroke:#000000;stroke-width:5"
     d="m 114.03,36.299991 1.15,6.22 1.46,10.06 2,17.5 1.23,16.13 0.15,11.67 -0.15,8.749999 -0.31,11.21 -0.31,9.99 -0.15,9.21 0.15,7.68 0.31,6.91 0.46,8.45 0.46,7.06 0.62,6.76 0.46,4.76 0.3,4.61 v 4.3 l -0.15,3.84 -0.61,2.76 -0.77,2.31 -1.38,2.61 -1.23,1.69 -1.39,1.38 1.39,0.15 2.92,-0.15 6.45,-0.31 h 6.6 l 8.15,0.46 8.45,0.62 9.06,0.46 15.36,0.15 16.29,-0.15 17.35,-0.31 12.29,-0.46 18.29,-0.77 18.43,-0.61 20.59,-0.16 14.28,0.46 14.6,0.46 18.28,0.46 17.97,0.47 17.36,0.61 12.45,0.61 14.44,0.31 h 13.21 l 10.9,-0.46 6.76,-0.31 6.61,-0.15 6.14,0.31 5.23,0.3 3.68,0.46 h 2.92"
     stroke-linecap="round"
     id="path29335" />
  <path
     brush-type="3"
     stroke-linejoin="round"
     stroke-wetness="0.50"
     style="fill:none;stroke:#808080;stroke-width:5"
     d="m 114.95,34.909991 5.99,-1.61 6.3,-0.69 11.83,-0.77 11.98,1.23 9.37,2 8.3,2.15 6.14,1.69 6.61,1.84 9.83,3.53 9.37,3.84 8.91,3.69 5.84,2.3 7.53,2.77 9.83,3.83 9.83,4 9.07,3.84 7.37,3.22 5.99,2.77 8.14,4.45 7.84,4.76 7.99,5.22 5.53,4 6.6,5.22 6.61,5.369999 6.3,5.53 4.76,4.45 4.61,4.46 5.38,5.99 4.76,5.83 4.45,5.99 3.08,4.61 3.22,5.99 2.92,6.3 2.3,6.14 1.69,4.61 1.54,4.76 1.38,5.37 1.08,5.22 0.92,4.92 0.77,3.53 0.77,4.92 0.61,4.14 0.46,3.99 0.46,2.31 0.46,2.46 1.08,3.22 1.69,4.3"
     stroke-linecap="round"
     id="path29337" />
  <path
     brush-type="3"
     stroke-linejoin="round"
     stroke-wetness="0.50"
     style="fill:none;stroke:#ff0000;stroke-width:5"
     d="m 37.06,33.069991 2.77,-0.46 2.77,-0.61 5.37,-0.93 7.22,-0.92 6.45,-0.61 4.77,-0.46"
     stroke-linecap="round"
     id="path29339" />
  <path
     brush-type="3"
     stroke-linejoin="round"
     stroke-wetness="0.50"
     style="fill:none;stroke:#ff0000;stroke-width:5"
     d="m 52.73,32.149991 0.23,2.53 0.24,2.54 0.3,5.07 0.16,7.21 0.15,8.14 0.46,7.99 0.77,6.91 0.77,8.6 0.61,8.75 0.46,10.449999 0.46,7.83 0.46,7.68 0.46,7.52 0.31,7.68 0.31,7.68 0.31,5.53 0.46,5.07 0.61,4.76 0.62,3.84 0.76,3.99 0.47,3.69 0.46,3.99 0.15,3.69 -0.15,5.37 -0.46,5.22 -0.62,4.92 -0.31,3.07 -0.15,2.46 v 2.3 l 0.31,2.46 0.61,2.45 1.23,2.46"
     stroke-linecap="round"
     id="path29341" />
  <path
     brush-type="3"
     stroke-linejoin="round"
     stroke-wetness="0.50"
     style="fill:none;stroke:#ff0000;stroke-width:5"
     d="m 46.28,203.07999 h 1.38 l 1.69,-0.15 3.08,-0.31 3.53,-0.31 3.53,0.15 4,0.62 3.53,0.77 3.23,0.3 h 1.84"
     stroke-linecap="round"
     id="path29343" />
  <path
     brush-type="3"
     stroke-linejoin="round"
     stroke-wetness="0.50"
     style="fill:none;stroke:#ff0000;stroke-width:5"
     d="m 2.5,74.999991 0.92,-1.38 0.92,-0.93 4.15,-2.3 6.15,0.77 5.83,3.68 2.77,5.99 -0.31,5.69 -1.38,4.91 -2.31,5.38 -2.45,4.909999 -2.46,5.99 -1.38,4.15"
     stroke-linecap="round"
     id="path29345" />
  <path
     brush-type="3"
     stroke-linejoin="round"
     stroke-wetness="0.50"
     style="fill:none;stroke:#ff0000;stroke-width:5"
     d="m 17.25,129.81999 a 2.5,2.5 0 1 0 0.01,0"
     stroke-linecap="round"
     id="path29347" />
  <path
     brush-type="3"
     stroke-linejoin="round"
     stroke-wetness="0.50"
     style="fill:none;stroke:#000000;stroke-width:5"
     d="m 70.49,34.319991 h 1.84 2.46 l 5.99,0.31 5.69,0.46 4.91,0.46 h 2.92 l 3.07,-0.31 3.23,-0.31 2.92,-0.15 3.07,-0.46 2.3,-0.61 2.46,-0.77"
     stroke-linecap="round"
     id="path29349" />
  <path
     brush-type="3"
     stroke-linejoin="round"
     stroke-wetness="0.50"
     style="fill:none;stroke:#000000;stroke-width:5"
     d="m 238.54,62.289991 1.24,-0.25 -0.91,0.25 -0.82,0.82 -2.15,1 -1.32,0.49 -0.17,-1.16 1.65,-1.32 2.48,-1.15 1.82,0.33 -0.83,1.32 -1.81,1.15 -2.15,0.34 -0.83,-1 0.33,-1.65 1.16,-1.98 2.97,-2.31 2.98,-1.32 2.31,-0.33 v 0.99 l -1.16,1.48 -2.8,2.15 -2.98,1.49 -2.48,0.49 0.5,-1.98 2.15,-2.15 2.81,-1.81 1.81,-0.33 -0.49,0.99 -2.15,1.48 -3.14,1.66 -2.81,0.82 -1.82,0.17 v -0.83 l 1.49,-0.99 2.31,-0.83"
     stroke-linecap="round"
     id="path29351" />
  <path
     brush-type="3"
     stroke-linejoin="round"
     stroke-wetness="0.50"
     style="fill:none;stroke:#000000;stroke-width:5"
     d="m 239.15,63.549991 h -1.64 l -0.83,-0.28 -0.96,-1.09 0.55,-1.51 1.37,-1.37 1.51,-0.55 1.37,0.41 0.28,-0.68 v -0.96 h -0.14 v 1.51 l -1.1,1.91 -1.5,0.28 -1.38,-0.55 -0.41,-1.1 0.28,-1.64 0.82,-1.1 1.1,0.28 0.68,1.23 0.28,1.64 -0.83,0.96 -1.37,0.55 -1.51,-0.13 -0.68,-1.1 0.27,-1.37 0.83,-1.24 1.37,-0.41 1.09,1.1 0.55,1.51 -0.14,-0.14 v -1.51 l 0.55,-2.05 1.1,-0.14 0.69,1.1 0.13,1.64 -0.82,1.37 -1.23,0.55 -1.65,0.14 -1.37,-0.28 -0.69,-1.23 0.69,-1.51 1.1,-1.23 1.5,0.14 0.96,0.95 0.69,1.65 v 1.37 l -0.55,1.23 -1.23,0.55 -1.37,0.14 -1.51,-0.82 -0.96,-1.24 -0.28,-1.92 1.1,-1.64 1.65,-1.23 h 1.92 l 1.5,0.82 1.38,1.64 0.68,1.65 -0.14,1.51 -0.96,0.96 -1.5,0.54 -2.33,0.14 -2.06,-0.41 -1.65,-0.82 0.28,-1.79 0.96,-1.78 1.51,-1.5 1.23,-0.42 h 1.51 l 1.37,0.42 1.1,1.5 0.27,1.78 -0.41,2.06 -1.1,1.37 -2.19,1.1 -2.2,0.55 -2.05,-0.14 -1.1,-0.82 -0.69,-1.24 0.28,-2.05 0.96,-1.92 1.37,-1.78 1.23,-0.83 1.79,-0.54 1.78,-0.14 1.78,0.27 1.1,0.69 0.68,1.51 v 1.5 l -0.68,1.65 -1.37,0.96 -1.65,0.41 -1.37,-0.69 -0.68,-2.6"
     stroke-linecap="round"
     id="path29353" />
  <path
     brush-type="3"
     stroke-linejoin="round"
     stroke-wetness="0.50"
     style="fill:none;stroke:#0000ff;stroke-width:5"
     d="m 119.77,213.72999 v 1.65 1.37 l 0.41,4.25 0.55,4.52 1.37,5.48 1.24,3.43 1.09,2.06"
     stroke-linecap="round"
     id="path29355" />
  <path
     brush-type="3"
     stroke-linejoin="round"
     stroke-wetness="0.50"
     style="fill:none;stroke:#0000ff;stroke-width:5"
     d="m 123.06,226.47999 3.7,-0.62 2.06,-0.34 5.49,-0.96 4.25,-0.55 4.66,-0.41 5.07,-0.14 4.94,-0.13 6.72,-0.28 5.75,0.14 6.04,0.27 6.3,0.55 6.31,0.28 6.31,0.13 h 6.58 l 6.17,-0.13 6.45,-0.41 3.83,-0.55 5.21,-0.28 5.08,0.14 4.93,0.27 3.16,0.14 h 2.33 l 2.47,0.41 3.42,0.55"
     stroke-linecap="round"
     id="path29357" />
  <path
     brush-type="3"
     stroke-linejoin="round"
     stroke-wetness="0.50"
     style="fill:none;stroke:#0000ff;stroke-width:5"
     d="m 244,210.84999 0.41,1.65 0.27,1.23 0.55,5.07 -0.14,7.13 -0.41,6.72 -0.55,3.42"
     stroke-linecap="round"
     id="path29359" />
  <path
     brush-type="3"
     stroke-linejoin="round"
     stroke-wetness="0.50"
     style="fill:none;stroke:#0000ff;stroke-width:5"
     d="m 250.99,223.59999 1.85,0.62 1.58,0.2 3.15,0.69 3.7,0.27 4.12,0.28 4.8,0.13 h 5.48 l 6.44,0.14 h 8.23 l 8.64,0.14 h 7.82 6.71 5.21 l 5.76,0.41 7,0.82 7.13,0.96 6.58,0.55 4.39,0.14 h 4.66 l 5.34,-0.14 4.53,-0.14 4.11,-0.13"
     stroke-linecap="round"
     id="path29361" />
  <path
     brush-type="3"
     stroke-linejoin="round"
     stroke-wetness="0.50"
     style="fill:none;stroke:#0000ff;stroke-width:5"
     d="m 365.34,215.78999 -0.41,1.44 -0.41,2.81 -0.82,5.89 -0.55,6.17 -0.27,3.84"
     stroke-linecap="round"
     id="path29363" />
  <path
     brush-type="3"
     stroke-linejoin="round"
     stroke-wetness="0.50"
     style="fill:none;stroke:#0000ff;stroke-width:5"
     d="m 173.66,235.93999 2.67,2.46 3.22,3.16 4.94,4.52 4.52,4.25"
     stroke-linecap="round"
     id="path29365" />
  <path
     brush-type="3"
     stroke-linejoin="round"
     stroke-wetness="0.50"
     style="fill:none;stroke:#0000ff;stroke-width:5"
     d="m 176.54,247.03999 1.02,-1.03 0.76,-1.03 1.78,-2.05 1.51,-2.06 2.06,-2.33 1.92,-2.19 2.33,-2.06"
     stroke-linecap="round"
     id="path29367" />
  <path
     brush-type="3"
     stroke-linejoin="round"
     stroke-wetness="0.50"
     style="fill:none;stroke:#0000ff;stroke-width:5"
     d="m 293.77,237.98999 1.44,0.83 2.26,1.78 4.8,3.84 4.39,3.83 4.52,3.43"
     stroke-linecap="round"
     id="path29369" />
  <path
     brush-type="3"
     stroke-linejoin="round"
     stroke-wetness="0.50"
     style="fill:none;stroke:#0000ff;stroke-width:5"
     d="m 296.65,247.03999 1.23,-1.64 1.1,-1.1 2.19,-2.19 2.06,-1.79 1.37,-1.23"
     stroke-linecap="round"
     id="path29371" />
  <path
     brush-type="3"
     stroke-linejoin="round"
     stroke-wetness="0.50"
     style="fill:none;stroke:#0000ff;stroke-width:5"
     d="m 200.39,60.759991 2.06,-0.41 3.02,-0.28 5.76,-0.54 5.62,-0.55 4.25,-0.41 3.56,-0.41 h 3.16 2.47 l 2.33,-0.28"
     stroke-linecap="round"
     id="path29373" />
  <path
     brush-type="3"
     stroke-linejoin="round"
     stroke-wetness="0.50"
     style="fill:none;stroke:#0000ff;stroke-width:5"
     d="m 206.98,30.329991 2.05,-0.21 2.47,-0.06 7.27,-0.14 7.68,0.68 6.17,0.83 2.05,1.5"
     stroke-linecap="round"
     id="path29375" />
  <path
     brush-type="3"
     stroke-linejoin="round"
     stroke-wetness="0.50"
     style="fill:none;stroke:#0000ff;stroke-width:5"
     d="m 216.85,32.799991 1.03,1.64 0.89,2.33 1.51,5.07 0.96,5.21 0.68,4.39 0.41,2.19"
     stroke-linecap="round"
     id="path29377" />
  <path
     brush-type="3"
     stroke-linejoin="round"
     stroke-wetness="0.50"
     style="fill:none;stroke:#0000ff;stroke-width:5"
     d="m 362.46,199.33999 0.21,-3.5 -0.07,-3.22 v -5.62 l -0.27,-4.66 -0.69,-6.3 -0.96,-6.58 -1.1,-8.64 -0.82,-8.5 -0.82,-8.91 -0.96,-7.4 -0.82,-5.34 -0.55,-8.37 -0.14,-8.77 -0.14,-8.63 -0.41,-5.209999 -1.09,-6.17 -1.65,-9.18 -1.51,-9.19 -0.96,-7.13 -0.41,-3.97 -0.41,-5.48 0.14,-6.03 0.27,-5.49 0.28,-3.01 -0.28,-1.51 -0.14,-1.51 0.14,-1.23 1.65,-2.06"
     stroke-linecap="round"
     id="path29379" />
  <path
     brush-type="3"
     stroke-linejoin="round"
     stroke-wetness="0.50"
     style="fill:none;stroke:#0000ff;stroke-width:5"
     d="m 336.55,37.319991 1.64,-0.62 1.65,-0.34 3.56,-0.55 3.84,-0.27 4.39,-0.41 4.25,-0.55 4.25,-0.41 3.98,-0.14 h 2.74"
     stroke-linecap="round"
     id="path29381" />
  <path
     brush-type="3"
     stroke-linejoin="round"
     stroke-wetness="0.50"
     style="fill:none;stroke:#d67300;stroke-width:5"
     d="m 106.61,22.519991 0.61,-1.44 1.72,-4.59 2.33,-6.17 2.33,-5.8999997 1.78,-1.92 1.79,0.14 1.92,3.7 1.09,6.5799997 0.82,7.4 0.42,6.58"
     stroke-linecap="round"
     id="path29383" />
  <path
     brush-type="3"
     stroke-linejoin="round"
     stroke-wetness="0.50"
     style="fill:none;stroke:#d67300;stroke-width:5"
     d="m 99.62,17.169991 1.23,-0.2 1.92,-0.21 4.25,-0.27 5.07,-0.14 6.04,-0.14 5.48,-0.41 3.84,-0.41"
     stroke-linecap="round"
     id="path29385" />
  <path
     brush-type="3"
     stroke-linejoin="round"
     stroke-wetness="0.50"
     style="fill:none;stroke:#d67300;stroke-width:5"
     d="m 232.89,73.099991 -0.41,5.96 -0.14,5 0.69,8.91 1.64,5.35 3.29,2.459999 3.16,-0.13 3.01,-1.239999 1.65,-2.33 0.41,-3.42 -0.68,-3.29 -1.38,-2.61 -1.5,-1.37 0.41,-1.37 1.78,-1.37 3.43,-1.23 3.01,-1.1 2.06,-1.92 0.27,-1.92 -1.64,-1.78 -3.15,-1.1 -3.98,-0.96 -5.21,-0.54 h -4.53 l -4.38,0.96"
     stroke-linecap="round"
     id="path29387" />
  <path
     brush-type="3"
     stroke-linejoin="round"
     stroke-wetness="0.50"
     style="fill:none;stroke:#d67300;stroke-width:5"
     d="m 382.21,181.24999 -1.03,-1.03 -2.95,2.53 -2.88,4.12 -0.68,5.34 3.29,2.61 3.84,0.68 4.66,-0.41"
     stroke-linecap="round"
     id="path29389" />
  <path
     brush-type="3"
     stroke-linejoin="round"
     stroke-wetness="0.50"
     style="fill:none;stroke:#0000ff;stroke-width:5"
     d="m 269.94,36.719991 h -3.92 l -3.36,2.06 -4.26,2.88 -1.1,3.03 2.06,1.1 3.02,0.13 3.44,-0.55 2.33,-0.68"
     stroke-linecap="round"
     id="path29391" />
  <path
     brush-type="3"
     stroke-linejoin="round"
     stroke-wetness="0.50"
     style="fill:none;stroke:#0000ff;stroke-width:5"
     d="m 277.77,39.189991 2.07,1.24 1.37,0.96 2.89,1.79 2.33,1.23 2.34,0.96 3.02,1.1"
     stroke-linecap="round"
     id="path29393" />
  <path
     brush-type="3"
     stroke-linejoin="round"
     stroke-wetness="0.50"
     style="fill:none;stroke:#0000ff;stroke-width:5"
     d="m 276.54,48.259991 1.03,-1.44 1.17,-1.03 2.19,-2.07 2.75,-2.19 2.61,-2.34 2.34,-2.06 2.06,-2.06"
     stroke-linecap="round"
     id="path29395" />
  <path
     brush-type="3"
     stroke-linejoin="round"
     stroke-wetness="0.50"
     style="fill:none;stroke:#0000ff;stroke-width:5"
     d="m 293.85,19.409991 1.45,-1.03 1.03,-0.35 2.2,-0.82 h 1.78 l 1.38,1.1 0.27,1.65 -0.82,1.92 -1.38,1.24 -1.23,2.2 -0.28,2.33 0.82,2.06 2.07,0.69 h 3.02 l 3.57,-0.55 2.61,-0.55"
     stroke-linecap="round"
     id="path29397" />
  <path
     brush-type="3"
     stroke-linejoin="round"
     stroke-wetness="0.50"
     style="fill:none;stroke:#0000ff;stroke-width:5"
     d="m 374.66,93.139991 -1.03,1.03 -0.76,0.89 -2.61,3.98 -2.06,5.359999 -0.55,5.36 1.79,2.61 2.88,0.41 3.44,-0.13 2.61,-0.14"
     stroke-linecap="round"
     id="path29399" />
  <path
     brush-type="3"
     stroke-linejoin="round"
     stroke-wetness="0.50"
     style="fill:none;stroke:#0000ff;stroke-width:5"
     d="m 381.26,105.08999 0.2,2.27 0.21,2.26 0.27,3.99 0.14,3.43 0.28,3.99"
     stroke-linecap="round"
     id="path29401" />
  <path
     brush-type="3"
     stroke-linejoin="round"
     stroke-wetness="0.50"
     style="fill:none;stroke:#0000ff;stroke-width:5"
     d="m 400.63,101.78999 -5.15,1.65 -2.4,1.24 -4.54,3.02 -0.96,2.34 0.27,2.19 1.38,1.24 3.02,0.96 3.3,0.41 3.16,0.14 3.02,-0.55"
     stroke-linecap="round"
     id="path29403" />
  <path
     brush-type="3"
     stroke-linejoin="round"
     stroke-wetness="0.50"
     style="fill:none;stroke:#0000ff;stroke-width:5"
     d="m 410.12,104.26999 2.47,0.82 1.51,0.69 5.91,3.02 4.54,2.61 3.84,2.2"
     stroke-linecap="round"
     id="path29405" />
  <path
     brush-type="3"
     stroke-linejoin="round"
     stroke-wetness="0.50"
     style="fill:none;stroke:#0000ff;stroke-width:5"
     d="m 412.59,112.91999 1.65,-2.06 1.24,-1.65 2.61,-3.43 2.06,-2.61 1.37,-1.65"
     stroke-linecap="round"
     id="path29407" />
  <path
     brush-type="3"
     stroke-linejoin="round"
     stroke-wetness="0.50"
     style="fill:none;stroke:#0000ff;stroke-width:5"
     d="m 429.08,84.889991 1.24,-0.82 2.88,-0.27 4.81,0.41 3.71,1.37 0.42,1.79 -1.79,1.23 -2.89,1.79 -2.47,1.92 -1.79,1.93 v 1.37 l 1.24,0.96 3.44,0.83 3.84,0.27 h 3.99 l 3.57,-0.41"
     stroke-linecap="round"
     id="path29409" />
</svg>
