<?xml version="1.0" encoding="UTF-8" standalone="no"?>
<!DOCTYPE svg PUBLIC "-//W3C//DTD SVG 1.1//EN"
 "http://www.w3.org/Graphics/SVG/1.1/DTD/svg11.dtd">
<!-- Generated by graphviz version 2.49.3 (0)
 -->
<!-- Pages: 1 -->
<svg width="221pt" height="260pt"
 viewBox="0.00 0.00 220.89 260.00" xmlns="http://www.w3.org/2000/svg" xmlns:xlink="http://www.w3.org/1999/xlink">
<g id="graph0" class="graph" transform="scale(1 1) rotate(0) translate(4 256)">
<polygon fill="white" stroke="transparent" points="-4,4 -4,-256 216.89,-256 216.89,4 -4,4"/>
<!-- c -->
<g id="node1" class="node">
<title>c</title>
<ellipse fill="none" stroke="black" cx="123.7" cy="-234" rx="51.99" ry="18"/>
<text text-anchor="middle" x="123.7" y="-230.3" font-family="Times,serif" font-size="14.00">Infection</text>
</g>
<!-- s -->
<g id="node2" class="node">
<title>s</title>
<ellipse fill="none" stroke="black" cx="79.7" cy="-162" rx="59.59" ry="18"/>
<text text-anchor="middle" x="79.7" y="-158.3" font-family="Times,serif" font-size="14.00">Symptoms</text>
</g>
<!-- c&#45;&gt;s -->
<g id="edge1" class="edge">
<title>c&#45;&gt;s</title>
<path fill="none" stroke="black" d="M113.04,-216.05C107.86,-207.8 101.51,-197.7 95.75,-188.54"/>
<polygon fill="black" stroke="black" points="98.53,-186.39 90.25,-179.79 92.61,-190.12 98.53,-186.39"/>
</g>
<!-- e -->
<g id="node4" class="node">
<title>e</title>
<ellipse fill="none" stroke="black" cx="129.7" cy="-18" rx="83.39" ry="18"/>
<text text-anchor="middle" x="129.7" y="-14.3" font-family="Times,serif" font-size="14.00">Adverse Effects</text>
</g>
<!-- c&#45;&gt;e -->
<g id="edge5" class="edge">
<title>c&#45;&gt;e</title>
<path fill="none" stroke="black" d="M134.06,-216.03C139.6,-205.96 145.85,-192.71 148.7,-180 159.09,-133.61 147.5,-78.35 138.4,-46.12"/>
<polygon fill="black" stroke="black" points="141.64,-44.72 135.45,-36.11 134.93,-46.7 141.64,-44.72"/>
</g>
<!-- t -->
<g id="node3" class="node">
<title>t</title>
<ellipse fill="none" stroke="black" cx="50.7" cy="-90" rx="50.89" ry="18"/>
<text text-anchor="middle" x="50.7" y="-86.3" font-family="Times,serif" font-size="14.00">Antiviral</text>
</g>
<!-- s&#45;&gt;t -->
<g id="edge2" class="edge">
<title>s&#45;&gt;t</title>
<path fill="none" stroke="black" d="M72.68,-144.05C69.41,-136.18 65.45,-126.62 61.8,-117.79"/>
<polygon fill="black" stroke="black" points="64.91,-116.17 57.85,-108.28 58.45,-118.85 64.91,-116.17"/>
</g>
<!-- s&#45;&gt;e -->
<g id="edge4" class="edge">
<title>s&#45;&gt;e</title>
<path fill="none" stroke="black" d="M91.5,-144.04C98.01,-133.97 105.76,-120.72 110.7,-108 118.44,-88.02 123.31,-64.23 126.18,-46.28"/>
<polygon fill="black" stroke="black" points="129.67,-46.6 127.68,-36.2 122.75,-45.57 129.67,-46.6"/>
</g>
<!-- t&#45;&gt;e -->
<g id="edge3" class="edge">
<title>t&#45;&gt;e</title>
<path fill="none" stroke="black" d="M68.62,-73.12C78.9,-64 92,-52.4 103.43,-42.28"/>
<polygon fill="black" stroke="black" points="105.85,-44.8 111.02,-35.55 101.21,-39.56 105.85,-44.8"/>
</g>
</g>
</svg>
