<?xml version="1.0" encoding="UTF-8" standalone="no"?>
<!DOCTYPE svg PUBLIC "-//W3C//DTD SVG 1.1//EN"
 "http://www.w3.org/Graphics/SVG/1.1/DTD/svg11.dtd">
<!-- Generated by graphviz version 2.49.3 (0)
 -->
<!-- Pages: 1 -->
<svg width="239pt" height="260pt"
 viewBox="0.00 0.00 238.99 260.00" xmlns="http://www.w3.org/2000/svg" xmlns:xlink="http://www.w3.org/1999/xlink">
<g id="graph0" class="graph" transform="scale(1 1) rotate(0) translate(4 256)">
<polygon fill="white" stroke="transparent" points="-4,4 -4,-256 234.99,-256 234.99,4 -4,4"/>
<!-- c -->
<g id="node1" class="node">
<title>c</title>
<ellipse fill="none" stroke="black" cx="122.79" cy="-162" rx="51.99" ry="18"/>
<text text-anchor="middle" x="122.79" y="-158.3" font-family="Times,serif" font-size="14.00">Infection</text>
</g>
<!-- s -->
<g id="node2" class="node">
<title>s</title>
<ellipse fill="none" stroke="black" cx="59.79" cy="-90" rx="59.59" ry="18"/>
<text text-anchor="middle" x="59.79" y="-86.3" font-family="Times,serif" font-size="14.00">Symptoms</text>
</g>
<!-- c&#45;&gt;s -->
<g id="edge4" class="edge">
<title>c&#45;&gt;s</title>
<path fill="none" stroke="black" d="M107.86,-144.41C99.94,-135.61 90.06,-124.63 81.32,-114.92"/>
<polygon fill="black" stroke="black" points="83.91,-112.56 74.62,-107.47 78.71,-117.24 83.91,-112.56"/>
</g>
<!-- e -->
<g id="node4" class="node">
<title>e</title>
<ellipse fill="none" stroke="black" cx="147.79" cy="-18" rx="83.39" ry="18"/>
<text text-anchor="middle" x="147.79" y="-14.3" font-family="Times,serif" font-size="14.00">Adverse Effects</text>
</g>
<!-- c&#45;&gt;e -->
<g id="edge6" class="edge">
<title>c&#45;&gt;e</title>
<path fill="none" stroke="black" d="M125.81,-143.87C130.07,-119.67 137.9,-75.21 142.97,-46.39"/>
<polygon fill="black" stroke="black" points="146.48,-46.64 144.77,-36.19 139.59,-45.43 146.48,-46.64"/>
</g>
<!-- s&#45;&gt;e -->
<g id="edge5" class="edge">
<title>s&#45;&gt;e</title>
<path fill="none" stroke="black" d="M80.2,-72.76C91.7,-63.62 106.25,-52.05 118.9,-41.99"/>
<polygon fill="black" stroke="black" points="121.24,-44.6 126.88,-35.63 116.88,-39.12 121.24,-44.6"/>
</g>
<!-- t -->
<g id="node3" class="node">
<title>t</title>
<ellipse fill="none" stroke="black" cx="122.79" cy="-234" rx="46.29" ry="18"/>
<text text-anchor="middle" x="122.79" y="-230.3" font-family="Times,serif" font-size="14.00">Vaccine</text>
</g>
<!-- t&#45;&gt;c -->
<g id="edge1" class="edge">
<title>t&#45;&gt;c</title>
<path fill="none" stroke="black" d="M122.79,-215.7C122.79,-207.98 122.79,-198.71 122.79,-190.11"/>
<polygon fill="black" stroke="black" points="126.29,-190.1 122.79,-180.1 119.29,-190.1 126.29,-190.1"/>
</g>
<!-- t&#45;&gt;s -->
<g id="edge2" class="edge">
<title>t&#45;&gt;s</title>
<path fill="none" stroke="black" d="M98.02,-218.69C84.68,-209.5 69.43,-196.25 61.79,-180 52.73,-160.7 52.86,-136.36 54.9,-118.02"/>
<polygon fill="black" stroke="black" points="58.38,-118.37 56.26,-107.99 51.45,-117.43 58.38,-118.37"/>
</g>
<!-- t&#45;&gt;e -->
<g id="edge3" class="edge">
<title>t&#45;&gt;e</title>
<path fill="none" stroke="black" d="M147.71,-218.75C161.1,-209.59 176.35,-196.34 183.79,-180 204.23,-135.17 180.95,-77.89 163.47,-45.14"/>
<polygon fill="black" stroke="black" points="166.42,-43.24 158.52,-36.19 160.3,-46.63 166.42,-43.24"/>
</g>
</g>
</svg>
